<svg width="1920" height="1041" viewBox="0 0 1920 1041" fill="none" xmlns="http://www.w3.org/2000/svg">
<path d="M267.269 503.365C266.772 487.166 258.646 473.05 244.244 461.406C229.838 449.76 209.193 440.622 183.777 434.391C132.948 421.928 63.1811 421.123 -13.4678 434.964C-90.1167 448.805 -159.065 474.658 -208.573 505.238C-233.328 520.528 -253.188 536.98 -266.723 553.672C-280.256 570.36 -287.43 587.239 -286.933 603.438C-286.436 619.637 -278.31 633.753 -263.907 645.397C-249.502 657.043 -228.856 666.181 -203.441 672.412C-152.612 684.874 -82.8449 685.679 -6.19592 671.839C70.453 657.998 139.402 632.145 188.909 601.565C213.664 586.275 233.524 569.823 247.06 553.131C260.592 536.443 267.766 519.564 267.269 503.365Z" stroke="#B1D8FF" stroke-width="1.5"/>
<path d="M273.322 485.506C272.825 469.307 264.699 455.191 250.297 443.547C235.891 431.9 215.246 422.763 189.83 416.531C139.001 404.069 69.2341 403.264 -7.41481 417.105C-84.0637 430.945 -153.012 456.798 -202.52 487.378C-227.275 502.669 -247.135 519.121 -260.67 535.813C-274.203 552.501 -281.377 569.38 -280.88 585.579C-280.383 601.777 -272.257 615.894 -257.855 627.538C-243.449 639.184 -222.803 648.322 -197.388 654.553C-146.559 667.015 -76.7919 667.82 -0.14294 653.98C76.506 640.139 145.455 614.286 194.962 583.706C219.717 568.415 239.577 551.964 253.113 535.272C266.645 518.583 273.819 501.705 273.322 485.506Z" stroke="#B1D8FF" stroke-width="1.5"/>
<path d="M278.567 514.837C262.289 520.916 244.987 518.579 227.598 509.016C210.205 499.452 192.773 482.684 176.291 460.01C143.328 414.665 114.247 345.82 96.8963 264.217C79.546 182.615 77.2261 103.774 87.4752 42.2894C92.6 11.5454 100.861 -14.8197 111.927 -35.013C122.99 -55.2025 136.825 -69.1698 153.103 -75.2496C169.381 -81.3293 186.682 -78.9917 204.072 -69.4294C221.464 -59.8652 238.896 -43.0965 255.379 -20.4229C288.342 24.9219 317.423 93.7671 334.773 175.37C352.124 256.973 354.444 335.813 344.195 397.298C339.07 428.042 330.809 454.407 319.743 474.6C308.68 494.79 294.845 508.757 278.567 514.837Z" stroke="#B1D8FF" stroke-width="1.5"/>
<path d="M263.484 517.29C247.206 523.37 229.905 521.032 212.515 511.47C195.123 501.905 177.691 485.137 161.208 462.463C128.245 417.118 99.164 348.273 81.8136 266.67C64.4632 185.068 62.1433 106.227 72.3924 44.7426C77.5173 13.9986 85.7782 -12.3665 96.8438 -32.5598C107.907 -52.7493 121.742 -66.7166 138.02 -72.7964C154.298 -78.8761 171.6 -76.5385 188.989 -66.9762C206.382 -57.4121 223.814 -40.6433 240.296 -17.9697C273.259 27.3751 302.34 96.2202 319.691 177.823C337.041 259.426 339.361 338.266 329.112 399.751C323.987 430.495 315.726 456.86 304.66 477.053C293.597 497.243 279.762 511.21 263.484 517.29Z" stroke="#B1D8FF" stroke-width="1.5"/>
<path d="M278.557 506.549C303.523 479.393 304.168 432.068 284.595 377.203C265.043 322.398 225.4 260.347 170.278 204.077C115.156 147.807 55.0427 108.024 2.43882 89.1701C-50.2235 70.2956 -95.0909 72.476 -120.058 99.6328C-145.024 126.79 -145.669 174.114 -126.095 228.98C-106.544 283.785 -66.9012 345.835 -11.7791 402.105C43.343 458.375 103.456 498.159 156.06 517.012C208.723 535.887 253.59 533.706 278.557 506.549Z" stroke="#B1D8FF" stroke-width="1.5"/>
<path d="M265.754 518.195C282.766 625.058 156.961 807.425 57.5554 810.796C-110.165 811.145 -103.896 614.736 -72.9627 553.702C-115.354 665.082 -73.0724 805.1 61.2589 792.278C203.053 778.744 280.273 583.13 265.754 518.195Z" stroke="#B1D8FF" stroke-width="1.5"/>
<path d="M12.9175 452.909C-41.8172 469.231 -72.0859 539.167 -80.3784 572.095C-59.9538 521.923 -36.8278 555.143 -8.63864 507.236C19.5505 459.329 17.4776 451.056 12.9175 452.909Z" stroke="#B1D8FF" stroke-width="1.5"/>
<path d="M470.036 41.4424C636.474 110.351 795.155 45.4516 645.955 -39.1507C496.755 -123.753 314.342 -24.1314 190.625 140.16C91.652 271.593 191.063 459.328 265.754 518.196C181.488 451.781 96.7973 259.39 192.41 137.803C311.925 -14.1816 482.668 -122.623 635.925 -31.0075C779.698 54.9378 533.079 58.205 470.036 41.4424ZM470.036 41.4424C319.374 -20.9349 291.481 201.903 453.845 172.811M470.036 41.4424C329.369 4.03949 288.338 154.579 453.845 172.811M453.845 172.811C470.845 169.765 489.931 163.957 511.18 154.77C501.349 137.817 476.118 117.691 453.845 172.811Z" stroke="#B1D8FF" stroke-width="1.5"/>
<path d="M1652.65 503.365C1653.15 487.166 1661.27 473.05 1675.67 461.406C1690.08 449.76 1710.72 440.622 1736.14 434.391C1786.97 421.928 1856.74 421.123 1933.39 434.964C2010.03 448.805 2078.98 474.658 2128.49 505.238C2153.25 520.528 2173.11 536.98 2186.64 553.672C2200.17 570.36 2207.35 587.239 2206.85 603.438C2206.35 619.637 2198.23 633.753 2183.82 645.397C2169.42 657.043 2148.77 666.181 2123.36 672.412C2072.53 684.874 2002.76 685.679 1926.11 671.839C1849.46 657.998 1780.52 632.145 1731.01 601.565C1706.25 586.275 1686.39 569.823 1672.86 553.131C1659.33 536.443 1652.15 519.564 1652.65 503.365Z" stroke="#B1D8FF" stroke-width="1.5"/>
<path d="M1646.6 485.506C1647.09 469.307 1655.22 455.191 1669.62 443.547C1684.03 431.9 1704.67 422.763 1730.09 416.531C1780.92 404.069 1850.68 403.264 1927.33 417.105C2003.98 430.945 2072.93 456.798 2122.44 487.378C2147.19 502.669 2167.05 519.121 2180.59 535.813C2194.12 552.501 2201.29 569.38 2200.8 585.579C2200.3 601.777 2192.17 615.894 2177.77 627.538C2163.37 639.184 2142.72 648.322 2117.31 654.553C2066.48 667.015 1996.71 667.82 1920.06 653.98C1843.41 640.139 1774.46 614.286 1724.96 583.706C1700.2 568.415 1680.34 551.964 1666.8 535.272C1653.27 518.583 1646.1 501.705 1646.6 485.506Z" stroke="#B1D8FF" stroke-width="1.5"/>
<path d="M1641.35 514.837C1657.63 520.916 1674.93 518.579 1692.32 509.016C1709.71 499.452 1727.14 482.684 1743.63 460.01C1776.59 414.665 1805.67 345.82 1823.02 264.217C1840.37 182.615 1842.69 103.774 1832.44 42.2894C1827.32 11.5454 1819.06 -14.8197 1807.99 -35.013C1796.93 -55.2025 1783.09 -69.1698 1766.81 -75.2496C1750.54 -81.3293 1733.24 -78.9917 1715.85 -69.4294C1698.45 -59.8652 1681.02 -43.0965 1664.54 -20.4229C1631.58 24.9219 1602.49 93.7671 1585.14 175.37C1567.79 256.973 1565.47 335.813 1575.72 397.298C1580.85 428.042 1589.11 454.407 1600.17 474.6C1611.24 494.79 1625.07 508.757 1641.35 514.837Z" stroke="#B1D8FF" stroke-width="1.5"/>
<path d="M1656.43 517.29C1672.71 523.37 1690.01 521.032 1707.4 511.47C1724.79 501.905 1742.23 485.137 1758.71 462.463C1791.67 417.118 1820.75 348.273 1838.1 266.67C1855.45 185.068 1857.77 106.227 1847.53 44.7426C1842.4 13.9986 1834.14 -12.3665 1823.07 -32.5598C1812.01 -52.7493 1798.18 -66.7166 1781.9 -72.7964C1765.62 -78.8761 1748.32 -76.5385 1730.93 -66.9762C1713.54 -57.4121 1696.1 -40.6433 1679.62 -17.9697C1646.66 27.3751 1617.58 96.2202 1600.23 177.823C1582.88 259.426 1580.56 338.266 1590.81 399.751C1595.93 430.495 1604.19 456.86 1615.26 477.053C1626.32 497.243 1640.16 511.21 1656.43 517.29Z" stroke="#B1D8FF" stroke-width="1.5"/>
<path d="M1641.36 506.549C1616.39 479.393 1615.75 432.068 1635.32 377.203C1654.87 322.398 1694.52 260.347 1749.64 204.077C1804.76 147.807 1864.87 108.024 1917.48 89.1701C1970.14 70.2956 2015.01 72.476 2039.98 99.6328C2064.94 126.79 2065.59 174.114 2046.01 228.98C2026.46 283.785 1986.82 345.835 1931.7 402.105C1876.57 458.375 1816.46 498.159 1763.86 517.012C1711.19 535.887 1666.33 533.706 1641.36 506.549Z" stroke="#B1D8FF" stroke-width="1.5"/>
<path d="M1654.16 518.195C1637.15 625.058 1762.96 807.425 1862.36 810.796C2030.08 811.145 2023.81 614.736 1992.88 553.702C2035.27 665.082 1992.99 805.1 1858.66 792.278C1716.86 778.744 1639.64 583.13 1654.16 518.195Z" stroke="#B1D8FF" stroke-width="1.5"/>
<path d="M1907 452.909C1961.73 469.231 1992 539.167 2000.3 572.095C1979.87 521.923 1956.75 555.143 1928.56 507.236C1900.37 459.329 1902.44 451.056 1907 452.909Z" stroke="#B1D8FF" stroke-width="1.5"/>
<path d="M1449.88 41.4424C1283.44 110.351 1124.76 45.4516 1273.96 -39.1507C1423.16 -123.753 1605.58 -24.1314 1729.29 140.16C1828.27 271.593 1728.85 459.328 1654.16 518.196C1738.43 451.781 1823.12 259.39 1727.51 137.803C1607.99 -14.1816 1437.25 -122.623 1283.99 -31.0075C1140.22 54.9378 1386.84 58.205 1449.88 41.4424ZM1449.88 41.4424C1600.54 -20.9349 1628.44 201.903 1466.07 172.811M1449.88 41.4424C1590.55 4.03949 1631.58 154.579 1466.07 172.811M1466.07 172.811C1449.07 169.765 1429.99 163.957 1408.74 154.77C1418.57 137.817 1443.8 117.691 1466.07 172.811Z" stroke="#B1D8FF" stroke-width="1.5"/>
</svg>
